<svg width="100" height="89" viewBox="0 0 100 89" fill="none" xmlns="http://www.w3.org/2000/svg">
<g clip-path="url(#clip0_394_123)">
<path d="M47.7951 43.4896C49.0104 44.7743 50.9896 44.7743 52.2222 43.4896L71.1285 23.6632C76.6146 17.8993 76.3021 8.35071 70.1562 3.03821C64.809 -1.5972 56.8403 -0.76387 51.9444 4.37502L50 6.40627L48.0729 4.39238C43.1771 -0.763871 35.2083 -1.5972 29.8611 3.03821C23.7326 8.35071 23.4028 17.8993 28.8889 23.6632L47.7951 43.4896ZM98.1424 56.9618C96.0937 55.1042 92.8993 55.2257 90.7465 56.9618L74.7049 69.7917C72.743 71.3715 70.2951 72.2222 67.7604 72.2222H47.2222C45.6944 72.2222 44.4444 70.9722 44.4444 69.4445C44.4444 67.9167 45.6944 66.6667 47.2222 66.6667H60.816C63.5764 66.6667 66.1458 64.7743 66.5972 62.0486C67.1701 58.5764 64.4965 55.5556 61.1111 55.5556H33.3333C28.6458 55.5556 24.1146 57.1702 20.4688 60.1215L12.3958 66.6667H2.77778C1.25 66.6667 0 67.9167 0 69.4445V86.1111C0 87.6389 1.25 88.8889 2.77778 88.8889H64.7222C67.2396 88.8889 69.6875 88.0382 71.6667 86.4584L97.9167 65.4514C100.556 63.3507 100.764 59.3229 98.1424 56.9618Z" fill="white" fill-opacity="0.5"/>
</g>
<defs>
<clipPath id="clip0_394_123">
<rect width="100" height="88.8889" fill="white"/>
</clipPath>
</defs>
</svg>
