<svg width="120" height="120" viewBox="0 0 120 120" fill="none" xmlns="http://www.w3.org/2000/svg">
<path d="M43.6959 20.3292C41.5762 20.3292 39.2165 21.705 37.4299 25.2778L35.8345 28.47C36.4157 28.4224 36.9989 28.3973 37.5817 28.3973C41.8052 28.3973 46.0204 29.6543 49.7388 32.142V24.8801C47.981 21.6183 45.7305 20.329 43.6961 20.329L43.6959 20.3292ZM76.304 20.3292C74.2696 20.3292 72.0196 21.6183 70.2618 24.8803V32.1445C74.4956 29.318 79.3778 28.0945 84.1708 28.4794L82.57 25.2778C80.7832 21.7048 78.4235 20.3292 76.3038 20.3292H76.304ZM37.5815 32.4994C33.1167 32.4994 28.6565 34.3024 24.9862 37.89L16.2253 53.2223C19.6218 51.6419 23.4049 50.7572 27.3909 50.7572C36.7565 50.7572 45.0065 55.6303 49.7385 62.9737V37.4639C46.1542 34.1557 41.8682 32.4994 37.5815 32.4994ZM82.683 32.5071C78.3091 32.4354 73.9197 34.0868 70.2618 37.463V62.9735C74.9939 55.6305 83.2439 50.7572 92.609 50.7572C96.5957 50.7572 100.379 51.6419 103.775 53.2223L95.0144 37.89C91.4167 34.3737 87.0574 32.5791 82.6835 32.5071H82.683ZM60 35.6149C58.8016 35.6149 57.2151 36.2653 53.9571 37.8712V69.0464C55.6553 67.8009 57.7455 67.062 60 67.062C62.2544 67.062 64.3446 67.8012 66.0428 69.0466V37.8712C62.785 36.2653 61.1983 35.6149 60 35.6149ZM27.3914 54.9759C15.0241 54.9759 5.0437 64.9561 5.0437 77.3231C5.0437 89.6901 15.0241 99.6708 27.3914 99.6708C39.7582 99.6708 49.7383 89.6901 49.7383 77.3231C49.7383 64.9561 39.7582 54.9759 27.3911 54.9759H27.3914ZM92.6086 54.9759C80.2418 54.9759 70.2616 64.9561 70.2616 77.3231C70.2616 89.6901 80.2418 99.6708 92.6088 99.6708C104.976 99.6708 114.956 89.6901 114.956 77.3231C114.956 64.9561 104.976 54.9759 92.6088 54.9759H92.6086ZM27.0241 59.43C27.3111 59.4257 27.5982 59.4281 27.8852 59.437C29.6064 59.4898 31.3291 59.7797 32.9875 60.3314C41.6224 62.9899 46.9903 72.4401 44.8521 81.2166C43.0586 90.0626 34.1985 96.3361 25.2595 95.0845C16.1779 94.1787 8.99948 85.8084 9.51886 76.6901C9.558 74.0159 10.2532 71.4551 11.4407 69.161C11.8604 70.3541 12.6397 71.3877 13.6713 72.1195C14.7029 72.8513 15.936 73.2451 17.2007 73.2469C18.0037 73.247 18.7987 73.0889 19.5406 72.7817C20.2824 72.4746 20.9565 72.0243 21.5243 71.4566C22.0921 70.8889 22.5425 70.2149 22.8499 69.4732C23.1572 68.7314 23.3155 67.9364 23.3156 67.1334C23.314 65.868 22.9198 64.6341 22.1874 63.6021C21.455 62.5701 20.4205 61.7908 19.2264 61.3716C21.3494 60.2714 23.7023 59.5917 26.1653 59.4621C26.4512 59.4452 26.7375 59.4345 27.0239 59.43H27.0241ZM92.2413 59.43C92.5283 59.4257 92.8153 59.4281 93.1021 59.437C94.8234 59.4898 96.5465 59.7797 98.2054 60.3314C106.84 62.9899 112.207 72.4401 110.069 81.2166C108.276 90.0623 99.4164 96.3361 90.4781 95.0852C81.396 94.1794 74.2171 85.8082 74.7368 76.6896C74.7759 74.0154 75.471 71.4551 76.6586 69.161C77.0783 70.3541 77.8575 71.3877 78.8891 72.1194C79.9206 72.8512 81.1537 73.2451 82.4184 73.2469C84.0398 73.2468 85.5948 72.6027 86.7413 71.4562C87.8879 70.3098 88.5321 68.7548 88.5323 67.1334C88.5308 65.8681 88.1367 64.6343 87.4045 63.6023C86.6723 62.5704 85.6379 61.7909 84.4441 61.3716C86.5668 60.2714 88.9195 59.5917 91.3823 59.4621C91.6681 59.4452 91.9546 59.4345 92.2413 59.43ZM60 71.2805C56.6376 71.2805 53.9571 73.9608 53.9571 77.3231C53.9571 80.6855 56.6376 83.366 60 83.366C63.3623 83.366 66.0428 80.6855 66.0428 77.3231C66.0428 73.9608 63.3623 71.2809 60 71.2809V71.2805Z" fill="white" fill-opacity="0.5"/>
</svg>
