<svg width="120" height="120" viewBox="0 0 120 120" fill="none" xmlns="http://www.w3.org/2000/svg">
<path d="M72.9218 60.457C72.9864 60.9168 72.9597 61.3847 72.8434 61.8341C72.727 62.2835 72.5232 62.7056 72.2436 63.0762C71.964 63.4468 71.6141 63.7586 71.2139 63.9939C70.8137 64.2292 70.3711 64.3834 69.9113 64.4475L35.4 69.278L30.4008 76.9003L11.0328 79.612L16.032 71.9789L10.2788 72.7852C10.2136 72.7852 10.1487 72.8133 10.0812 72.8238C9.91752 72.8467 9.75242 72.858 9.58715 72.8576C8.68887 72.8627 7.82238 72.5254 7.16393 71.9143C6.50547 71.3033 6.10451 70.4644 6.04259 69.5682C5.98067 68.672 6.26244 67.7859 6.83059 67.0901C7.39874 66.3943 8.21061 65.9411 9.10105 65.8226C9.16902 65.8226 9.23395 65.8226 9.30145 65.8043L15.0546 64.9985L8.1523 59.0191L27.5075 56.3128L34.4098 62.2917L68.9239 57.4617C69.0875 57.4388 69.2525 57.4274 69.4177 57.4277C70.2685 57.4264 71.0913 57.7319 71.7351 58.2883C72.3788 58.8447 72.8004 59.6145 72.9223 60.4566L72.9218 60.457ZM64.3193 51.4228C64.9661 50.4286 65.8368 49.5998 66.8616 49.0027C67.8152 48.4556 68.9111 48.2074 70.0074 48.2902C71.1509 48.3988 72.2456 48.8068 73.1813 49.473C74.2969 50.2643 75.2464 51.2669 75.976 52.4238C76.864 53.8054 77.5274 55.319 77.9414 56.9084C78.3873 58.5891 78.5895 60.3252 78.5419 62.0634C78.5046 63.6555 78.2286 65.2329 77.723 66.743C77.2926 68.0596 76.6131 69.2811 75.7215 70.3411C74.9526 71.2608 73.9477 71.9537 72.8147 72.3455C71.7697 72.6885 70.6456 72.7093 69.5886 72.4052C68.497 72.0788 67.4941 71.5079 66.6561 70.736C66.164 70.2944 65.7141 69.8079 65.3122 69.2829L57.747 70.3409C58.2177 71.6244 58.7736 72.8751 59.4111 74.0845C60.5573 76.2876 62.0316 78.3038 63.7836 80.0639C65.3705 81.6769 67.2782 82.939 69.3835 83.7684C71.4427 84.5684 73.6909 84.7492 75.8515 84.2887C78.1997 83.7443 80.3409 82.5336 82.0179 80.8022C83.869 78.9616 85.3976 76.523 86.4973 73.6505C87.6786 70.4976 88.3372 67.173 88.4473 63.8079C88.5899 60.0979 88.1567 56.3883 87.1629 52.811C86.266 49.4658 84.8 46.3 82.8293 43.452C81.0481 40.938 78.9816 39.0115 76.7872 37.7325C74.811 36.5399 72.5416 35.9214 70.2336 35.9466C68.0258 36.0157 65.8859 36.7257 64.0747 37.9898C62.1491 39.3414 60.5371 41.0918 59.3485 43.122C58.0734 45.2755 57.1263 47.6071 56.5383 50.0398C56.1277 51.6945 55.8494 53.3792 55.7063 55.0781L63.0169 54.0539C63.3372 53.125 63.7749 52.2408 64.3193 51.4228ZM110.797 43.2234C108.236 34.9561 104.402 28.046 99.8185 22.7452C95.4692 17.7019 90.5504 14.2467 85.4939 12.3827C80.7701 10.646 75.9868 10.3343 71.4425 11.3871C67.2101 12.3724 63.1934 14.5432 59.5824 17.8605C56.2027 20.9566 53.4675 24.8041 51.3359 29.0653C49.2664 33.2726 47.7469 37.7287 46.8148 42.3239C45.852 47.0016 45.3919 51.7689 45.4423 56.5444L50.735 55.8037C50.821 52.6209 51.2172 49.4541 51.9179 46.3481C52.6957 42.8379 53.9554 39.4522 55.6613 36.2873C57.3875 33.1467 59.5791 30.3989 62.2231 28.2982C65.0098 26.0857 68.0543 24.7859 71.1997 24.3982C74.5196 23.9824 77.9433 24.5726 81.2632 26.1584C84.7468 27.8224 88.0798 30.5599 90.9863 34.3085C93.9994 38.1926 96.4976 43.0882 98.1722 48.8203C99.829 54.4967 100.521 60.4109 100.221 66.3164C99.9268 71.9531 98.7207 77.1966 96.7707 81.7045C94.8858 86.0592 92.3511 89.6468 89.3119 92.2233C86.4261 94.6772 83.1373 96.1877 79.594 96.5958C76.286 96.9502 72.9446 96.3739 69.9464 94.9317C67.0606 93.5906 64.3622 91.5368 61.9707 88.9528C59.5557 86.3109 57.526 83.3412 55.9416 80.1316C54.504 77.2402 53.3621 74.2109 52.5333 71.0899L47.2636 71.8179C48.3257 76.4921 49.8948 81.0365 51.9432 85.3702C53.9329 89.596 56.4676 93.543 59.4825 97.1105C62.5271 100.67 66.0029 103.633 69.7749 105.734C73.8014 107.978 78.2187 109.264 82.8307 109.218C87.8143 109.169 92.5433 107.572 96.7807 104.582C101.317 101.382 105.219 96.6377 108.175 90.653C111.279 84.367 113.261 76.8745 113.812 68.7061C114.376 60.0964 113.355 51.4563 110.798 43.2155L110.797 43.2234Z" fill="white" fill-opacity="0.5"/>
</svg>
