<?xml version="1.0" standalone="no"?>
<svg xmlns:xlink="http://www.w3.org/1999/xlink" id="wave" style="transform:rotate(180deg); transition: 0.3s" viewBox="0 0 1440 320" version="1.1" xmlns="http://www.w3.org/2000/svg"><defs><linearGradient id="sw-gradient-0" x1="0" x2="0" y1="1" y2="0"><stop stop-color="rgba(255, 255, 255, 1)" offset="0%"/><stop stop-color="rgba(255, 255, 255, 1)" offset="100%"/></linearGradient></defs><path style="transform:translate(0, 0px); opacity:1" fill="url(#sw-gradient-0)" d="M0,256L1440,96L2880,0L4320,32L5760,224L7200,192L8640,192L10080,128L11520,224L12960,224L14400,0L15840,64L17280,160L18720,256L20160,64L21600,224L23040,96L24480,288L25920,192L27360,96L28800,224L30240,0L31680,288L33120,224L34560,256L34560,320L33120,320L31680,320L30240,320L28800,320L27360,320L25920,320L24480,320L23040,320L21600,320L20160,320L18720,320L17280,320L15840,320L14400,320L12960,320L11520,320L10080,320L8640,320L7200,320L5760,320L4320,320L2880,320L1440,320L0,320Z"/></svg>