<?xml version="1.0" standalone="no"?>
<svg xmlns:xlink="http://www.w3.org/1999/xlink" id="wave" style="transform:rotate(180deg); transition: 0.3s" viewBox="0 0 1440 490" version="1.1" xmlns="http://www.w3.org/2000/svg"><defs><linearGradient id="sw-gradient-0" x1="0" x2="0" y1="1" y2="0"><stop stop-color="rgba(255, 255, 255, 1)" offset="0%"/><stop stop-color="rgba(255, 255, 255, 1)" offset="100%"/></linearGradient></defs><path style="transform:translate(0, 0px); opacity:1" fill="url(#sw-gradient-0)" d="M0,441L240,416.5C480,392,960,343,1440,310.3C1920,278,2400,261,2880,285.8C3360,310,3840,376,4320,400.2C4800,425,5280,408,5760,359.3C6240,310,6720,229,7200,196C7680,163,8160,180,8640,155.2C9120,131,9600,65,10080,49C10560,33,11040,65,11520,89.8C12000,114,12480,131,12960,171.5C13440,212,13920,278,14400,294C14880,310,15360,278,15840,236.8C16320,196,16800,147,17280,138.8C17760,131,18240,163,18720,196C19200,229,19680,261,20160,236.8C20640,212,21120,131,21600,114.3C22080,98,22560,147,23040,204.2C23520,261,24000,327,24480,302.2C24960,278,25440,163,25920,122.5C26400,82,26880,114,27360,130.7C27840,147,28320,147,28800,155.2C29280,163,29760,180,30240,204.2C30720,229,31200,261,31680,302.2C32160,343,32640,392,33120,367.5C33600,343,34080,245,34320,196L34560,147L34560,490L34320,490C34080,490,33600,490,33120,490C32640,490,32160,490,31680,490C31200,490,30720,490,30240,490C29760,490,29280,490,28800,490C28320,490,27840,490,27360,490C26880,490,26400,490,25920,490C25440,490,24960,490,24480,490C24000,490,23520,490,23040,490C22560,490,22080,490,21600,490C21120,490,20640,490,20160,490C19680,490,19200,490,18720,490C18240,490,17760,490,17280,490C16800,490,16320,490,15840,490C15360,490,14880,490,14400,490C13920,490,13440,490,12960,490C12480,490,12000,490,11520,490C11040,490,10560,490,10080,490C9600,490,9120,490,8640,490C8160,490,7680,490,7200,490C6720,490,6240,490,5760,490C5280,490,4800,490,4320,490C3840,490,3360,490,2880,490C2400,490,1920,490,1440,490C960,490,480,490,240,490L0,490Z"/></svg>